<?xml version="1.0" encoding="iso-8859-1"?>
<!-- Generator: Adobe Illustrator 19.0.0, SVG Export Plug-In . SVG Version: 6.00 Build 0)  -->
<svg version="1.1" id="Capa_1" xmlns="http://www.w3.org/2000/svg" xmlns:xlink="http://www.w3.org/1999/xlink" x="0px" y="0px"
	 viewBox="0 0 426.977 426.977" style="enable-background:new 0 0 426.977 426.977;" xml:space="preserve">
<g>
	<g>
		<g>
			<path d="M175.328,140.842C175.328,140.842,175.328,140.842,175.328,140.842c0-14.853-12.04-26.893-26.892-26.893
				s-26.892,12.04-26.892,26.892s12.04,26.892,26.892,26.892C163.281,167.717,175.311,155.687,175.328,140.842z"/>
			<path d="M416.91,76.886l-31.841-14.6c-1.423-0.613-2.631-1.636-3.469-2.939l-27.781-44.156
				c-4.864-7.647-13.365-12.204-22.426-12.02h-112.9c-8.208-0.129-16.006,3.581-21.084,10.031l-35.782,46.546
				c-1.09,1.401-2.607,2.409-4.322,2.87L97.378,78.956c-7.809,2.105-13.278,9.129-13.405,17.215v21.84
				c0,9.84,8.53,18.16,18.369,18.16h3.5c2.306-19.743,17.876-35.313,37.619-37.619c23.524-2.747,44.821,14.095,47.568,37.619h125.89
				c2.306-19.743,17.876-35.313,37.619-37.619c23.524-2.747,44.821,14.095,47.568,37.619h7.807c9.84,0,17.06-8.32,17.06-18.16
				V93.084C427.124,86.168,423.177,79.815,416.91,76.886z"/>
			<path d="M359.513,167.733c14.845-0.017,26.875-12.046,26.892-26.891c0,0,0-0.001,0-0.001c0-14.852-12.04-26.892-26.892-26.892
				s-26.892,12.04-26.892,26.892S344.661,167.733,359.513,167.733L359.513,167.733z"/>
			<path d="M411.852,202.198c-6.168-6.023-14.463-9.368-23.084-9.309c-8.638-0.005-16.913,3.472-22.956,9.645
				c-23.38,23.761-63.7,64.46-72.857,73.7l-73.616,10.734l-13.683-18.2l55.073-16.91c16.913-5.166,26.436-23.066,21.269-39.979
				c-4.699-15.384-20.082-24.894-35.944-22.221l-113.239,17.927c-7.656,1.129-14.852,4.351-20.794,9.31L0,325.733l82.516,98.078
				l55.592-61.508l155.01-5.26c9.832-0.374,19.161-4.442,26.127-11.391l94-97.841l0.1-0.108
				c11.861-12.657,11.524-32.446-0.76-44.692L411.852,202.198z"/>
		</g>
	</g>
</g>
<g>
</g>
<g>
</g>
<g>
</g>
<g>
</g>
<g>
</g>
<g>
</g>
<g>
</g>
<g>
</g>
<g>
</g>
<g>
</g>
<g>
</g>
<g>
</g>
<g>
</g>
<g>
</g>
<g>
</g>
</svg>
